<?xml version="1.0" standalone="no"?>
<!DOCTYPE svg PUBLIC "-//W3C//DTD SVG 20010904//EN"
 "http://www.w3.org/TR/2001/REC-SVG-20010904/DTD/svg10.dtd">
<svg version="1.0" xmlns="http://www.w3.org/2000/svg"
 width="720.000000pt" height="720.000000pt" viewBox="0 0 720.000000 720.000000"
 preserveAspectRatio="xMidYMid meet">
<metadata>
Created by potrace 1.14, written by Peter Selinger 2001-2017
</metadata>
<g transform="translate(0.000000,720.000000) scale(0.100000,-0.100000)"
fill="#000000" stroke="none">
<path d="M1178 6263 c-65 -58 -217 -213 -278 -283 -30 -35 -60 -68 -65 -74 -9
-9 -63 -78 -87 -111 -4 -5 -18 -23 -31 -40 -80 -102 -263 -391 -308 -487 -11
-24 -24 -50 -29 -58 -9 -13 -72 -147 -75 -160 -1 -3 -12 -27 -24 -55 -13 -27
-24 -54 -25 -60 -2 -5 -9 -23 -15 -40 -29 -68 -125 -369 -123 -382 1 -2 -4
-17 -9 -35 -11 -37 -12 -42 -35 -153 -8 -44 -19 -98 -24 -120 -5 -22 -11 -67
-15 -100 -4 -33 -9 -71 -11 -85 -27 -168 -26 -719 1 -855 2 -11 7 -40 10 -65
3 -25 7 -56 10 -70 2 -13 7 -42 10 -65 3 -22 8 -47 10 -55 2 -8 7 -31 10 -50
6 -34 49 -203 78 -305 19 -65 78 -233 110 -310 55 -134 90 -211 102 -225 7 -8
16 -25 20 -38 6 -20 65 -134 95 -182 5 -8 25 -43 45 -77 19 -34 40 -65 45 -68
5 -3 16 -20 25 -38 13 -28 194 -276 228 -312 7 -8 32 -37 57 -67 25 -29 109
-117 188 -196 l142 -143 38 30 c20 16 58 49 85 73 26 24 65 59 88 78 23 19 51
44 63 55 12 11 41 37 64 58 l42 37 -163 163 c-90 89 -181 185 -202 212 -22 28
-42 52 -46 55 -14 12 -150 200 -160 224 -7 14 -16 26 -21 26 -4 0 -8 7 -8 15
0 8 -3 15 -8 15 -4 0 -13 10 -19 23 -36 68 -45 85 -63 112 -35 55 -145 285
-176 368 -9 23 -22 56 -29 72 -24 58 -88 266 -85 277 1 2 -6 19 -14 39 -8 20
-13 39 -10 42 3 3 1 14 -4 24 -5 10 -12 34 -15 53 -3 19 -12 73 -21 120 -15
84 -24 146 -33 225 -11 98 -9 507 2 605 23 191 25 205 29 220 3 8 7 31 10 50
7 45 22 112 51 230 44 178 131 401 241 615 53 104 74 143 129 233 18 29 90
137 95 142 3 3 32 41 65 85 32 44 64 85 69 91 6 6 36 40 66 75 60 70 200 210
273 276 26 23 47 46 47 51 0 4 -10 17 -22 28 -13 11 -59 51 -103 89 -44 38
-82 72 -85 75 -3 3 -40 36 -82 73 l-77 68 -43 -38z"/>
<path d="M5955 6263 c-16 -14 -59 -51 -95 -83 -106 -93 -245 -214 -249 -217
-2 -1 10 -13 26 -27 84 -71 276 -269 353 -365 19 -24 40 -48 45 -55 45 -49
215 -299 215 -315 0 -5 3 -11 8 -13 14 -6 187 -338 175 -338 -3 0 -1 -6 5 -12
22 -28 125 -317 158 -443 4 -16 8 -32 9 -35 4 -15 16 -68 20 -88 2 -13 6 -31
9 -40 6 -20 17 -76 21 -112 4 -27 12 -86 21 -139 25 -157 25 -652 -1 -775 -2
-12 -6 -39 -9 -61 -25 -202 -104 -489 -193 -705 -23 -58 -43 -109 -43 -114 0
-5 -6 -17 -13 -25 -7 -9 -22 -36 -33 -61 -44 -104 -235 -421 -281 -468 -7 -7
-13 -17 -13 -20 0 -4 -10 -18 -23 -32 -12 -14 -33 -40 -45 -57 -41 -59 -94
-116 -255 -276 l-158 -157 25 -23 c13 -12 45 -40 72 -62 26 -22 59 -51 74 -65
15 -14 58 -52 96 -85 37 -33 77 -68 87 -78 18 -18 19 -18 40 0 43 35 283 280
322 328 22 27 47 56 55 65 8 9 35 43 59 75 25 33 47 62 50 65 3 3 15 19 27 35
11 17 36 53 55 80 33 46 152 241 190 310 89 159 190 396 252 585 27 85 52 162
55 170 3 8 6 22 8 31 2 8 11 42 19 75 9 32 18 70 21 84 47 244 49 257 71 470
4 41 8 176 8 300 0 262 -9 389 -41 575 -8 44 -16 98 -20 120 -9 63 -79 330
-117 445 -50 153 -161 421 -198 480 -5 8 -19 35 -32 60 -38 78 -101 185 -109
188 -4 2 -8 8 -8 14 0 11 -127 207 -144 223 -6 6 -27 33 -45 60 -19 28 -38 52
-41 55 -3 3 -13 14 -21 26 -21 31 -86 108 -149 177 -67 74 -273 277 -280 277
-3 0 -18 -12 -35 -27z"/>
<path d="M1925 5589 c-118 -95 -347 -343 -434 -469 -72 -104 -131 -196 -131
-207 0 -6 -4 -13 -9 -15 -12 -4 -161 -303 -161 -323 0 -4 -7 -21 -15 -38 -39
-85 -143 -462 -131 -474 2 -3 1 -16 -4 -28 -5 -13 -11 -45 -15 -72 -3 -26 -7
-64 -10 -83 -4 -29 -17 -248 -17 -285 1 -45 13 -250 16 -272 3 -15 8 -52 11
-82 4 -30 9 -63 11 -75 3 -12 9 -43 14 -71 10 -56 56 -236 70 -275 5 -14 23
-65 40 -115 79 -225 222 -485 381 -692 102 -133 259 -298 359 -379 19 -16 43
-37 52 -48 17 -18 19 -17 75 30 32 27 65 56 73 64 9 8 44 40 79 70 35 30 85
74 110 97 25 24 49 43 54 43 20 0 3 30 -30 52 -41 27 -63 47 -163 143 -78 74
-157 160 -185 199 -11 16 -28 36 -37 45 -10 8 -18 21 -18 27 0 7 -4 14 -9 16
-9 3 -94 131 -125 188 -10 19 -29 54 -42 77 -50 91 -126 287 -159 408 -18 67
-18 70 -41 175 -3 14 -7 41 -9 60 -2 19 -8 69 -14 110 -9 77 -7 415 3 460 4
14 8 41 10 60 10 84 47 241 88 365 66 202 200 449 342 630 85 109 276 296 373
365 l35 24 -55 51 c-30 27 -81 73 -112 100 -70 60 -117 101 -170 149 -22 19
-42 36 -45 36 -3 0 -28 -18 -55 -41z"/>
<path d="M5199 5599 c-13 -11 -51 -44 -83 -72 -33 -29 -69 -60 -80 -70 -71
-62 -152 -135 -167 -151 -18 -19 -17 -20 23 -50 74 -54 235 -209 310 -299 73
-86 108 -133 108 -143 0 -7 4 -14 8 -16 11 -4 63 -80 97 -142 155 -278 241
-541 273 -831 14 -127 6 -444 -13 -547 -6 -35 -11 -63 -20 -113 -3 -22 -9 -47
-12 -55 -3 -8 -7 -19 -8 -25 -18 -78 -69 -232 -99 -300 -64 -141 -184 -354
-236 -418 -5 -7 -29 -37 -52 -67 -84 -110 -187 -214 -320 -326 -64 -54 -84
-75 -74 -81 8 -4 31 -24 52 -43 22 -19 59 -52 84 -74 25 -21 74 -64 110 -96
36 -31 79 -69 95 -83 l30 -25 35 26 c37 27 286 274 332 329 98 116 298 417
298 448 0 7 3 15 8 17 25 11 177 384 207 508 22 89 55 243 60 275 3 23 7 52
10 65 32 163 26 595 -11 790 -3 14 -9 48 -14 75 -16 90 -50 215 -82 310 -11
33 -21 65 -22 70 -1 6 -4 15 -8 20 -4 6 -18 41 -31 77 -31 82 -133 285 -182
364 -41 65 -133 200 -152 224 -6 8 -33 41 -59 74 -106 132 -355 376 -383 376
-4 0 -19 -9 -32 -21z"/>
<path d="M2578 4958 c-90 -69 -278 -248 -278 -267 0 -6 -4 -11 -8 -11 -7 0
-99 -118 -112 -145 -3 -5 -17 -28 -31 -50 -116 -180 -206 -439 -237 -685 -14
-114 -7 -386 13 -490 34 -182 85 -330 165 -486 53 -104 115 -202 156 -251 11
-12 28 -34 39 -50 41 -57 208 -219 294 -283 85 -64 85 -64 122 -31 19 16 43
38 55 48 12 10 52 45 90 79 38 34 112 98 164 144 52 46 96 86 97 89 3 7 -59
47 -86 56 -12 3 -21 11 -21 16 0 5 -5 9 -12 9 -42 0 -318 266 -318 308 0 6 -4
12 -8 14 -15 6 -68 103 -104 188 -39 92 -62 169 -73 240 -4 25 -9 56 -11 70
-5 31 -5 225 1 265 15 113 35 188 79 297 60 150 176 314 286 408 72 61 151
121 175 131 11 5 29 14 40 21 11 7 30 18 42 25 23 13 23 13 -20 51 -23 20 -47
42 -53 47 -9 9 -113 100 -164 145 -26 23 -140 123 -163 143 -11 9 -24 17 -28
17 -4 0 -45 -28 -91 -62z"/>
<path d="M4524 5007 c-6 -7 -26 -25 -45 -42 -44 -39 -254 -223 -291 -255 -16
-14 -45 -39 -65 -56 l-35 -31 54 -28 c29 -15 60 -33 69 -41 8 -8 20 -14 26
-14 6 0 13 -3 15 -7 2 -5 26 -26 53 -47 185 -145 331 -368 390 -596 16 -61 19
-79 31 -163 12 -92 4 -277 -17 -366 -79 -337 -295 -616 -591 -768 -16 -8 -28
-17 -28 -20 0 -5 32 -34 104 -96 50 -43 119 -104 145 -127 34 -31 137 -122
170 -150 23 -19 26 -19 50 -3 99 63 341 285 341 311 0 7 4 12 8 12 5 0 26 25
48 56 21 30 44 61 49 67 34 38 119 200 178 337 37 88 75 224 93 340 3 19 7 46
10 60 4 20 16 207 15 245 0 39 -12 192 -16 205 -2 8 -7 35 -11 60 -9 63 -10
73 -17 90 -3 8 -15 53 -28 100 -12 47 -25 90 -29 95 -4 6 -13 28 -20 50 -27
84 -176 353 -202 363 -4 2 -8 8 -8 14 0 31 -228 266 -335 346 -38 28 -75 56
-82 62 -15 12 -15 12 -29 -3z"/>
<path d="M3450 4180 c-211 -55 -369 -213 -431 -430 -21 -72 -19 -224 3 -303
57 -207 208 -362 412 -425 79 -24 244 -24 320 0 33 11 67 20 74 20 6 1 12 5
12 10 0 4 7 8 16 8 13 0 100 55 144 92 31 26 120 139 120 154 0 7 4 14 8 14 7
0 41 80 43 102 0 4 7 27 14 52 18 59 12 225 -10 296 -33 105 -104 218 -173
273 -12 10 -28 25 -36 32 -25 25 -145 86 -198 102 -78 22 -239 24 -318 3z"/>
</g>
</svg>
