<svg id="Layer_1" data-name="Layer 1" xmlns="http://www.w3.org/2000/svg" viewBox="0 0 360 269.96"><defs><style>.cls-1{fill:#f15a29;}.cls-2{fill:none;}</style></defs><circle class="cls-1" cx="180" cy="134.98" r="30"/><path class="cls-1" d="M296.9,179.11l-22.45,19.76a56.67,56.67,0,0,1-.29,102.39l22.49,19.79a85,85,0,0,0,.25-141.94ZM226.12,198.6,203.6,178.79a85,85,0,0,0-.25,142.26l22.49-19.79a56.67,56.67,0,0,1,.28-102.66Z" transform="translate(-70 -115.02)"/><path class="cls-1" d="M331.47,148.69l-19.12,16.82a105,105,0,0,1-.24,169.15l19.13,16.83a130,130,0,0,0,.23-202.8ZM188.12,165.17,169,148.33a130,130,0,0,0-.23,203.16l19.13-16.83a105,105,0,0,1,.23-169.49Z" transform="translate(-70 -115.02)"/><path class="cls-2" d="M405,250a154.67,154.67,0,0,1-54.75,118.22l-19-16.73-19.13-16.83-15.46-13.61-22.49-19.79L250,280l-24.16,21.26-22.49,19.79-15.46,13.61-19.13,16.83-19,16.73A155,155,0,0,1,150,131.6l19,16.73,19.13,16.84,15.48,13.62,22.52,19.81L250.43,220l24-21.13,22.45-19.76,15.45-13.6,19.12-16.82,19-16.72A154.66,154.66,0,0,1,405,250Z" transform="translate(-70 -115.02)"/><path class="cls-1" d="M369.4,115.39l-18.94,16.67a155,155,0,0,1-.21,236.25L369.19,385a180,180,0,0,0,.21-269.59ZM150,131.69,131,115a180,180,0,0,0-.22,270l18.94-16.67A155,155,0,0,1,150,131.69Z" transform="translate(-70 -115.02)"/><path class="cls-2" d="M405,250a154.67,154.67,0,0,1-54.75,118.22l-19-16.73-19.13-16.83-15.46-13.61-22.49-19.79L250,280l-24.16,21.26-22.49,19.79-15.46,13.61-19.13,16.83-19,16.73A155,155,0,0,1,150,131.6l19,16.73,19.13,16.84,15.48,13.62,22.52,19.81L250.43,220l24-21.13,22.45-19.76,15.45-13.6,19.12-16.82,19-16.72A154.66,154.66,0,0,1,405,250Z" transform="translate(-70 -115.02)"/></svg>